<?xml version="1.0" standalone="no"?>
<!DOCTYPE svg PUBLIC "-//W3C//DTD SVG 20010904//EN"
 "http://www.w3.org/TR/2001/REC-SVG-20010904/DTD/svg10.dtd">
<svg version="1.0" xmlns="http://www.w3.org/2000/svg"
 width="445.000000pt" height="445.000000pt" viewBox="0 0 445.000000 445.000000"
 preserveAspectRatio="xMidYMid meet">
<metadata>
Created by potrace 1.14, written by Peter Selinger 2001-2017
</metadata>
<g transform="translate(0.000000,445.000000) scale(0.100000,-0.100000)"
fill="#000000" stroke="none">
<path d="M293 4065 c0 -22 2 -30 4 -17 2 12 2 30 0 40 -3 9 -5 -1 -4 -23z"/>
<path d="M4131 4054 c0 -11 3 -14 6 -6 3 7 2 16 -1 19 -3 4 -6 -2 -5 -13z"/>
<path d="M4329 4028 c0 -18 0 -58 1 -88 1 -30 -1 -52 -5 -49 -3 4 -7 20 -7 36
-1 26 -4 29 -25 25 -13 -2 -37 1 -53 8 -29 12 -101 6 -98 -8 1 -4 -2 -24 -6
-44 l-8 -38 -632 0 c-347 0 -662 -5 -701 -10 -141 -18 -302 -75 -413 -147
-105 -67 -342 -325 -342 -372 0 -17 -33 -81 -42 -81 -4 0 -8 9 -8 20 0 11 5
20 10 20 6 0 10 6 10 13 0 6 -14 -3 -31 -21 -28 -30 -35 -33 -70 -27 -25 4
-39 3 -39 -4 0 -6 -5 -11 -11 -11 -6 0 -9 7 -5 15 3 8 1 15 -4 15 -5 0 -13
-12 -16 -27 -4 -16 -10 -32 -14 -38 -15 -19 -39 -130 -50 -229 -6 -55 -13
-198 -17 -318 -3 -120 -10 -218 -15 -218 -5 0 -6 5 -2 11 5 9 -1 10 -22 4 -16
-5 -42 -9 -59 -9 -35 -1 -33 10 -44 -186 -6 -106 -8 -11 -7 355 l2 500 26 98
c50 182 148 367 262 494 25 28 43 53 39 57 -3 3 -2 6 3 6 5 0 30 19 54 42 39
36 41 38 10 17 -19 -13 -41 -29 -48 -36 -17 -16 -12 -17 -63 7 -24 11 -58 20
-76 20 -40 0 -50 15 -27 41 9 10 14 22 11 25 -4 4 -9 -1 -13 -10 -6 -15 -69
-16 -745 -16 l-738 0 -3 53 -3 52 -17 -31 c-10 -17 -14 -34 -11 -38 4 -3 1 -6
-5 -6 -6 0 -17 7 -26 15 -8 9 -33 15 -56 15 -31 0 -47 6 -61 23 -18 22 -18 21
-19 -89 0 -61 -3 -126 -6 -143 l-6 -31 193 0 c107 0 252 -3 322 -7 112 -5 127
-8 121 -22 -4 -9 -9 -37 -12 -63 l-4 -48 -41 -1 c-82 -2 -92 -9 -92 -64 0 -41
4 -51 23 -61 34 -17 -150 -27 -348 -18 l-160 7 0 -177 0 -176 395 0 395 0 0
-1460 0 -1460 1083 0 c639 0 1113 5 1157 10 41 6 111 19 155 30 85 22 316 132
375 179 19 15 49 35 65 44 38 19 192 189 260 287 165 235 226 473 212 829 -6
156 -25 238 -86 361 -15 30 -34 71 -41 90 -41 105 -236 324 -363 407 -71 47
-158 93 -174 93 -6 0 -24 7 -42 16 -69 35 -146 45 -386 53 -235 8 -241 9 -287
36 -67 38 -154 136 -162 183 -18 108 2 164 75 218 106 78 60 74 884 74 l735 0
0 181 0 181 -662 -7 c-365 -3 -692 -10 -728 -15 -159 -22 -289 -93 -401 -218
-171 -190 -156 -492 33 -684 71 -71 142 -110 232 -127 33 -6 143 -11 245 -11
121 0 209 -5 252 -14 168 -36 326 -129 440 -257 121 -139 180 -246 225 -414
24 -86 27 -119 27 -240 0 -217 -42 -383 -145 -561 -56 -98 -93 -149 -151 -208
-43 -44 -47 -31 -5 15 28 32 44 66 34 76 -3 4 -27 8 -53 9 -25 2 -49 7 -52 13
-4 5 -24 -9 -46 -31 -122 -123 -318 -227 -495 -262 -80 -16 -1212 -15 -1196 1
2 3 34 5 70 4 38 0 68 4 72 11 5 8 2 9 -9 5 -10 -3 -17 -2 -17 3 0 6 14 10 30
10 17 0 30 5 30 10 0 6 -9 10 -20 10 -11 0 -20 4 -20 9 0 5 -9 7 -20 4 -13 -3
-20 0 -20 8 0 8 -10 15 -22 16 -13 1 -81 6 -153 11 l-130 9 190 3 c105 1 413
5 685 9 l495 7 90 31 c119 41 201 90 287 171 127 120 221 282 252 434 20 99
21 303 1 378 -54 206 -227 380 -431 436 -41 11 -132 18 -304 24 -162 5 -262
13 -295 22 -142 42 -280 150 -380 298 -97 145 -125 239 -132 435 -4 126 -2
150 21 240 75 294 280 503 572 583 l99 26 753 4 752 3 0 184 c0 102 -2 185 -5
185 -3 0 -5 -15 -6 -32z m-2948 -1348 c-1 -576 -6 -1011 -11 -1020 -7 -12 -9
-9 -10 12 0 38 -10 58 -27 58 -9 0 -13 6 -10 14 6 16 -13 26 -50 26 -18 0 -24
4 -20 15 4 8 2 17 -3 20 -6 4 -11 27 -12 53 -1 26 -5 2 -8 -53 -4 -55 -8 -374
-9 -708 -1 -454 -4 -606 -12 -601 -9 5 -10 -1 -5 -21 4 -15 9 -54 11 -87 l4
-59 -63 3 -63 2 -6 480 c-4 264 -7 1019 -7 1678 l0 1199 151 -3 152 -3 -2
-1005z m606 525 c-6 -19 -12 -33 -14 -31 -8 7 9 76 17 71 5 -3 3 -21 -3 -40z
m-30 -107 c-3 -7 -5 -2 -5 12 0 14 2 19 5 13 2 -7 2 -19 0 -25z m1225 -1229
c153 -32 271 -150 308 -308 17 -74 8 -249 -18 -321 -49 -140 -111 -226 -229
-320 -17 -14 -113 -70 -119 -70 -3 0 -3 4 0 9 4 5 0 12 -6 15 -7 4 -3 4 10 2
14 -3 22 1 22 10 0 8 6 15 13 15 6 1 17 2 22 4 6 1 16 3 23 3 7 1 10 7 7 12
-3 6 -1 10 4 10 6 0 11 7 11 15 0 8 8 15 18 16 15 0 15 1 -2 8 -16 6 -17 9 -5
17 8 4 21 9 29 9 8 0 17 11 18 24 4 23 2 24 -47 17 -30 -4 -51 -3 -51 3 0 5 5
11 12 13 6 2 12 12 14 21 2 17 -23 0 -93 -63 -13 -12 -23 -18 -23 -15 0 4 -17
-3 -37 -14 -100 -55 -106 -55 -815 -59 l-658 -3 0 71 0 70 609 0 c367 0 629 4
661 10 115 22 231 101 287 198 84 143 84 300 0 540 -14 39 -23 72 -21 72 1 0
27 -5 56 -11z m-1007 -69 c6 -4 39 -16 75 -28 56 -18 100 -21 335 -27 266 -7
271 -7 307 -32 71 -48 110 -125 111 -219 1 -49 -5 -70 -26 -106 -33 -57 -109
-125 -151 -136 -17 -4 -183 -6 -368 -4 l-338 4 0 283 0 283 23 -5 c12 -3 27
-9 32 -13z m1042 -816 c-3 -3 -12 -4 -19 -1 -8 3 -5 6 6 6 11 1 17 -2 13 -5z
m-117 -139 c-7 -8 -20 -15 -29 -15 -11 0 -8 5 9 14 33 19 35 19 20 1z m-127
-32 c-13 -2 -33 -2 -45 0 -13 2 -3 4 22 4 25 0 35 -2 23 -4z m661 -61 c3 -5
-1 -9 -9 -9 -8 0 -12 4 -9 9 3 4 7 8 9 8 2 0 6 -4 9 -8z m21 -152 c-3 -5 -11
-10 -16 -10 -6 0 -7 5 -4 10 3 6 11 10 16 10 6 0 7 -4 4 -10z m-75 -54 c0 -3
-4 -8 -10 -11 -5 -3 -10 -1 -10 4 0 6 5 11 10 11 6 0 10 -2 10 -4z"/>
<path d="M1131 474 c1 -37 -3 -59 -12 -64 -10 -7 -10 -11 0 -24 7 -8 11 -19 8
-23 -6 -10 45 -9 61 1 16 10 11 86 -6 86 -14 0 -13 24 3 63 6 14 2 17 -24 17
l-31 0 1 -56z"/>
</g>
</svg>
